<?xml version="1.0" encoding="utf-8" ?>
<svg baseProfile="full" height="57.5mm" version="1.1" viewBox="0,0,306.20000000000005,57.5" width="306.20000000000005mm" xmlns="http://www.w3.org/2000/svg" xmlns:ev="http://www.w3.org/2001/xml-events" xmlns:xlink="http://www.w3.org/1999/xlink"><defs /><rect fill="#FFFFFF" height="57.5" width="306.20000000000005" x="0" y="0" /><text fill="#000000" style="font-size:6px; font-family:Arial; font-weight:bold;" x="10" y="10" /><text fill="#000000" style="font-size:3px; font-family:Arial;" x="10" y="14.4">2024: 319 hours</text><text fill="#000000" style="font-size:2.5px; font-family:Arial" x="10" y="18.3">Jan</text><rect fill="#a2e2a4" height="4" rx="1" ry="1" width="4" x="10" y="19.7"><title>2024-01-01 33.57 mins</title></rect><rect fill="#a3e3a5" height="4" rx="1" ry="1" width="4" x="10" y="25.1"><title>2024-01-02 30.13 mins</title></rect><rect fill="#a3e3a5" height="4" rx="1" ry="1" width="4" x="10" y="30.5"><title>2024-01-03 29.62 mins</title></rect><rect fill="#66be6b" height="4" rx="1" ry="1" width="4" x="10" y="35.9"><title>2024-01-04 34.23 mins</title></rect><rect fill="#a7e5aa" height="4" rx="1" ry="1" width="4" x="10" y="41.300000000000004"><title>2024-01-05 15.37 mins</title></rect><rect fill="#a3e3a5" height="4" rx="1" ry="1" width="4" x="10" y="46.699999999999996"><title>2024-01-06 29.95 mins</title></rect><rect fill="#549F57" height="4" rx="1" ry="1" width="4" x="10" y="52.1"><title>2024-01-07 96.8 mins</title></rect><rect fill="#a4e3a6" height="4" rx="1" ry="1" width="4" x="15.4" y="19.7"><title>2024-01-08 26.22 mins</title></rect><rect fill="#a3e3a5" height="4" rx="1" ry="1" width="4" x="15.4" y="25.1"><title>2024-01-09 29.63 mins</title></rect><rect fill="#a3e3a5" height="4" rx="1" ry="1" width="4" x="15.4" y="30.5"><title>2024-01-10 29.62 mins</title></rect><rect fill="#a3e3a5" height="4" rx="1" ry="1" width="4" x="15.4" y="35.9"><title>2024-01-11 29.7 mins</title></rect><rect fill="#a3e3a5" height="4" rx="1" ry="1" width="4" x="15.4" y="41.300000000000004"><title>2024-01-12 29.68 mins</title></rect><rect fill="#a3e3a5" height="4" rx="1" ry="1" width="4" x="15.4" y="46.699999999999996"><title>2024-01-13 29.63 mins</title></rect><rect fill="#a8e5aa" height="4" rx="1" ry="1" width="4" x="15.4" y="52.1"><title>2024-01-14 14.82 mins</title></rect><rect fill="#a3e3a5" height="4" rx="1" ry="1" width="4" x="20.8" y="19.7"><title>2024-01-15 29.97 mins</title></rect><rect fill="#a3e3a5" height="4" rx="1" ry="1" width="4" x="20.8" y="25.1"><title>2024-01-16 29.6 mins</title></rect><rect fill="#a3e3a5" height="4" rx="1" ry="1" width="4" x="20.8" y="30.5"><title>2024-01-17 29.65 mins</title></rect><rect fill="#a3e3a5" height="4" rx="1" ry="1" width="4" x="20.8" y="35.9"><title>2024-01-18 29.58 mins</title></rect><rect fill="#549F57" height="4" rx="1" ry="1" width="4" x="20.8" y="41.300000000000004"><title>2024-01-19 177.83 mins</title></rect><rect fill="#549F57" height="4" rx="1" ry="1" width="4" x="20.8" y="46.699999999999996"><title>2024-01-20 200.15 mins</title></rect><rect fill="#a7e5a9" height="4" rx="1" ry="1" width="4" x="20.8" y="52.1"><title>2024-01-21 16.02 mins</title></rect><rect fill="#a3e3a5" height="4" rx="1" ry="1" width="4" x="26.200000000000003" y="19.7"><title>2024-01-22 29.72 mins</title></rect><rect fill="#a3e3a5" height="4" rx="1" ry="1" width="4" x="26.200000000000003" y="25.1"><title>2024-01-23 29.57 mins</title></rect><rect fill="#a3e3a5" height="4" rx="1" ry="1" width="4" x="26.200000000000003" y="30.5"><title>2024-01-24 29.58 mins</title></rect><rect fill="#a3e3a5" height="4" rx="1" ry="1" width="4" x="26.200000000000003" y="35.9"><title>2024-01-25 31.35 mins</title></rect><rect fill="#a8e5aa" height="4" rx="1" ry="1" width="4" x="26.200000000000003" y="41.300000000000004"><title>2024-01-26 13.85 mins</title></rect><rect fill="#a3e3a5" height="4" rx="1" ry="1" width="4" x="26.200000000000003" y="46.699999999999996"><title>2024-01-27 29.58 mins</title></rect><rect fill="#a7e5a9" height="4" rx="1" ry="1" width="4" x="26.200000000000003" y="52.1"><title>2024-01-28 16.6 mins</title></rect><rect fill="#a3e3a5" height="4" rx="1" ry="1" width="4" x="31.6" y="19.7"><title>2024-01-29 29.62 mins</title></rect><rect fill="#a8e5aa" height="4" rx="1" ry="1" width="4" x="31.6" y="25.1"><title>2024-01-30 13.98 mins</title></rect><rect fill="#a3e3a5" height="4" rx="1" ry="1" width="4" x="31.6" y="30.5"><title>2024-01-31 29.6 mins</title></rect><rect fill="#a7e5a9" height="4" rx="1" ry="1" width="4" x="31.6" y="35.9"><title>2024-02-01 17.08 mins</title></rect><rect fill="#a6e4a8" height="4" rx="1" ry="1" width="4" x="31.6" y="41.300000000000004"><title>2024-02-02 18.97 mins</title></rect><rect fill="#a7e5a9" height="4" rx="1" ry="1" width="4" x="31.6" y="46.699999999999996"><title>2024-02-03 18.02 mins</title></rect><rect fill="#a5e4a7" height="4" rx="1" ry="1" width="4" x="31.6" y="52.1"><title>2024-02-04 22.68 mins</title></rect><text fill="#000000" style="font-size:2.5px; font-family:Arial" x="37.0" y="18.3">Feb</text><rect fill="#a6e4a9" height="4" rx="1" ry="1" width="4" x="37.0" y="19.7"><title>2024-02-05 18.8 mins</title></rect><rect fill="#a7e5a9" height="4" rx="1" ry="1" width="4" x="37.0" y="25.1"><title>2024-02-06 17.03 mins</title></rect><rect fill="#a7e5a9" height="4" rx="1" ry="1" width="4" x="37.0" y="30.5"><title>2024-02-07 18.08 mins</title></rect><rect fill="#a8e5aa" height="4" rx="1" ry="1" width="4" x="37.0" y="35.9"><title>2024-02-08 14.77 mins</title></rect><rect fill="#a7e5a9" height="4" rx="1" ry="1" width="4" x="37.0" y="41.300000000000004"><title>2024-02-09 17.05 mins</title></rect><rect fill="#a9e6ab" height="4" rx="1" ry="1" width="4" x="37.0" y="46.699999999999996"><title>2024-02-10 9.05 mins</title></rect><rect fill="#a8e5aa" height="4" rx="1" ry="1" width="4" x="37.0" y="52.1"><title>2024-02-11 14.8 mins</title></rect><rect fill="#a7e5a9" height="4" rx="1" ry="1" width="4" x="42.4" y="19.7"><title>2024-02-12 17.02 mins</title></rect><rect fill="#a7e5a9" height="4" rx="1" ry="1" width="4" x="42.4" y="25.1"><title>2024-02-13 16.03 mins</title></rect><rect fill="#a8e5aa" height="4" rx="1" ry="1" width="4" x="42.4" y="30.5"><title>2024-02-14 14.55 mins</title></rect><rect fill="#a7e5a9" height="4" rx="1" ry="1" width="4" x="42.4" y="35.9"><title>2024-02-15 17.9 mins</title></rect><rect fill="#a7e5a9" height="4" rx="1" ry="1" width="4" x="42.4" y="41.300000000000004"><title>2024-02-16 18.23 mins</title></rect><rect fill="#a8e5aa" height="4" rx="1" ry="1" width="4" x="42.4" y="46.699999999999996"><title>2024-02-17 13.73 mins</title></rect><rect fill="#a8e5aa" height="4" rx="1" ry="1" width="4" x="42.4" y="52.1"><title>2024-02-18 15.03 mins</title></rect><rect fill="#a8e5aa" height="4" rx="1" ry="1" width="4" x="47.8" y="19.7"><title>2024-02-19 14.98 mins</title></rect><rect fill="#a6e4a8" height="4" rx="1" ry="1" width="4" x="47.8" y="25.1"><title>2024-02-20 21.08 mins</title></rect><rect fill="#a5e4a7" height="4" rx="1" ry="1" width="4" x="47.8" y="30.5"><title>2024-02-21 22.73 mins</title></rect><rect fill="#a3e3a5" height="4" rx="1" ry="1" width="4" x="47.8" y="35.9"><title>2024-02-22 30.13 mins</title></rect><rect fill="#a5e4a7" height="4" rx="1" ry="1" width="4" x="47.8" y="41.300000000000004"><title>2024-02-23 23.12 mins</title></rect><rect fill="#65bc69" height="4" rx="1" ry="1" width="4" x="47.8" y="46.699999999999996"><title>2024-02-24 60.43 mins</title></rect><rect fill="#a3e3a5" height="4" rx="1" ry="1" width="4" x="47.8" y="52.1"><title>2024-02-25 30.72 mins</title></rect><rect fill="#a3e3a5" height="4" rx="1" ry="1" width="4" x="53.199999999999996" y="19.7"><title>2024-02-26 30.05 mins</title></rect><rect fill="#a3e3a5" height="4" rx="1" ry="1" width="4" x="53.199999999999996" y="25.1"><title>2024-02-27 30.02 mins</title></rect><rect fill="#a2e3a5" height="4" rx="1" ry="1" width="4" x="53.199999999999996" y="30.5"><title>2024-02-28 32.45 mins</title></rect><rect fill="#a3e3a5" height="4" rx="1" ry="1" width="4" x="53.199999999999996" y="35.9"><title>2024-02-29 30.03 mins</title></rect><rect fill="#a2e3a5" height="4" rx="1" ry="1" width="4" x="53.199999999999996" y="41.300000000000004"><title>2024-03-01 32.25 mins</title></rect><rect fill="#a3e3a5" height="4" rx="1" ry="1" width="4" x="53.199999999999996" y="46.699999999999996"><title>2024-03-02 30.62 mins</title></rect><rect fill="#a3e3a5" height="4" rx="1" ry="1" width="4" x="53.199999999999996" y="52.1"><title>2024-03-03 30.95 mins</title></rect><text fill="#000000" style="font-size:2.5px; font-family:Arial" x="58.599999999999994" y="18.3">Mar</text><rect fill="#549F57" height="4" rx="1" ry="1" width="4" x="58.599999999999994" y="19.7"><title>2024-03-04 94.1 mins</title></rect><rect fill="#549F57" height="4" rx="1" ry="1" width="4" x="58.599999999999994" y="25.1"><title>2024-03-05 297.28 mins</title></rect><rect fill="#a5e4a7" height="4" rx="1" ry="1" width="4" x="58.599999999999994" y="30.5"><title>2024-03-06 23.53 mins</title></rect><rect fill="#a4e3a6" height="4" rx="1" ry="1" width="4" x="58.599999999999994" y="35.9"><title>2024-03-07 27.9 mins</title></rect><rect fill="#a3e3a6" height="4" rx="1" ry="1" width="4" x="58.599999999999994" y="41.300000000000004"><title>2024-03-08 28.87 mins</title></rect><rect fill="#a7e5a9" height="4" rx="1" ry="1" width="4" x="58.599999999999994" y="46.699999999999996"><title>2024-03-09 18.03 mins</title></rect><rect fill="#a8e5aa" height="4" rx="1" ry="1" width="4" x="58.599999999999994" y="52.1"><title>2024-03-10 13.87 mins</title></rect><rect fill="#a3e3a5" height="4" rx="1" ry="1" width="4" x="63.99999999999999" y="19.7"><title>2024-03-11 30.02 mins</title></rect><rect fill="#a5e4a7" height="4" rx="1" ry="1" width="4" x="63.99999999999999" y="25.1"><title>2024-03-12 23.27 mins</title></rect><rect fill="#a3e3a5" height="4" rx="1" ry="1" width="4" x="63.99999999999999" y="30.5"><title>2024-03-13 29.88 mins</title></rect><rect fill="#a3e3a6" height="4" rx="1" ry="1" width="4" x="63.99999999999999" y="35.9"><title>2024-03-14 29.05 mins</title></rect><rect fill="#a3e3a5" height="4" rx="1" ry="1" width="4" x="63.99999999999999" y="41.300000000000004"><title>2024-03-15 30.58 mins</title></rect><rect fill="#a3e3a5" height="4" rx="1" ry="1" width="4" x="63.99999999999999" y="46.699999999999996"><title>2024-03-16 29.93 mins</title></rect><rect fill="#a4e3a6" height="4" rx="1" ry="1" width="4" x="63.99999999999999" y="52.1"><title>2024-03-17 27.37 mins</title></rect><rect fill="#a8e5aa" height="4" rx="1" ry="1" width="4" x="69.39999999999999" y="19.7"><title>2024-03-18 12.15 mins</title></rect><rect fill="#a8e5aa" height="4" rx="1" ry="1" width="4" x="69.39999999999999" y="25.1"><title>2024-03-19 14.13 mins</title></rect><rect fill="#a3e3a5" height="4" rx="1" ry="1" width="4" x="69.39999999999999" y="30.5"><title>2024-03-20 30.02 mins</title></rect><rect fill="#a3e3a5" height="4" rx="1" ry="1" width="4" x="69.39999999999999" y="35.9"><title>2024-03-21 30.07 mins</title></rect><rect fill="#a5e4a7" height="4" rx="1" ry="1" width="4" x="69.39999999999999" y="41.300000000000004"><title>2024-03-22 24.8 mins</title></rect><rect fill="#a3e3a5" height="4" rx="1" ry="1" width="4" x="69.39999999999999" y="46.699999999999996"><title>2024-03-23 29.98 mins</title></rect><rect fill="#a2e3a5" height="4" rx="1" ry="1" width="4" x="69.39999999999999" y="52.1"><title>2024-03-24 32.45 mins</title></rect><rect fill="#a3e3a5" height="4" rx="1" ry="1" width="4" x="74.8" y="19.7"><title>2024-03-25 29.95 mins</title></rect><rect fill="#a4e3a6" height="4" rx="1" ry="1" width="4" x="74.8" y="25.1"><title>2024-03-26 27.12 mins</title></rect><rect fill="#a3e3a5" height="4" rx="1" ry="1" width="4" x="74.8" y="30.5"><title>2024-03-27 29.97 mins</title></rect><rect fill="#a3e3a5" height="4" rx="1" ry="1" width="4" x="74.8" y="35.9"><title>2024-03-28 29.93 mins</title></rect><rect fill="#a3e3a5" height="4" rx="1" ry="1" width="4" x="74.8" y="41.300000000000004"><title>2024-03-29 30.12 mins</title></rect><rect fill="#a3e3a5" height="4" rx="1" ry="1" width="4" x="74.8" y="46.699999999999996"><title>2024-03-30 30.12 mins</title></rect><rect fill="#a3e3a5" height="4" rx="1" ry="1" width="4" x="74.8" y="52.1"><title>2024-03-31 29.53 mins</title></rect><text fill="#000000" style="font-size:2.5px; font-family:Arial" x="80.2" y="18.3">Apr</text><rect fill="#a5e4a7" height="4" rx="1" ry="1" width="4" x="80.2" y="19.7"><title>2024-04-01 24.97 mins</title></rect><rect fill="#a3e3a5" height="4" rx="1" ry="1" width="4" x="80.2" y="25.1"><title>2024-04-02 29.95 mins</title></rect><rect fill="#a3e3a5" height="4" rx="1" ry="1" width="4" x="80.2" y="30.5"><title>2024-04-03 30.08 mins</title></rect><rect fill="#a6e4a8" height="4" rx="1" ry="1" width="4" x="80.2" y="35.9"><title>2024-04-04 21.48 mins</title></rect><rect fill="#a3e3a5" height="4" rx="1" ry="1" width="4" x="80.2" y="41.300000000000004"><title>2024-04-05 29.97 mins</title></rect><rect fill="#a3e3a5" height="4" rx="1" ry="1" width="4" x="80.2" y="46.699999999999996"><title>2024-04-06 30.07 mins</title></rect><rect fill="#a3e3a5" height="4" rx="1" ry="1" width="4" x="80.2" y="52.1"><title>2024-04-07 30.05 mins</title></rect><rect fill="#a2e2a4" height="4" rx="1" ry="1" width="4" x="85.60000000000001" y="19.7"><title>2024-04-08 33.15 mins</title></rect><rect fill="#a4e3a6" height="4" rx="1" ry="1" width="4" x="85.60000000000001" y="25.1"><title>2024-04-09 26.68 mins</title></rect><rect fill="#a3e3a5" height="4" rx="1" ry="1" width="4" x="85.60000000000001" y="30.5"><title>2024-04-10 29.63 mins</title></rect><rect fill="#a3e3a5" height="4" rx="1" ry="1" width="4" x="85.60000000000001" y="35.9"><title>2024-04-11 30.0 mins</title></rect><rect fill="#a3e3a5" height="4" rx="1" ry="1" width="4" x="85.60000000000001" y="41.300000000000004"><title>2024-04-12 29.9 mins</title></rect><rect fill="#a3e3a5" height="4" rx="1" ry="1" width="4" x="85.60000000000001" y="46.699999999999996"><title>2024-04-13 30.02 mins</title></rect><rect fill="#a7e5a9" height="4" rx="1" ry="1" width="4" x="85.60000000000001" y="52.1"><title>2024-04-14 16.27 mins</title></rect><rect fill="#a5e4a7" height="4" rx="1" ry="1" width="4" x="91.00000000000001" y="19.7"><title>2024-04-15 23.03 mins</title></rect><rect fill="#a3e3a5" height="4" rx="1" ry="1" width="4" x="91.00000000000001" y="25.1"><title>2024-04-16 29.62 mins</title></rect><rect fill="#a3e3a5" height="4" rx="1" ry="1" width="4" x="91.00000000000001" y="30.5"><title>2024-04-17 29.98 mins</title></rect><rect fill="#65bd69" height="4" rx="1" ry="1" width="4" x="91.00000000000001" y="35.9"><title>2024-04-18 59.13 mins</title></rect><rect fill="#a3e3a5" height="4" rx="1" ry="1" width="4" x="91.00000000000001" y="41.300000000000004"><title>2024-04-19 29.98 mins</title></rect><rect fill="#65bc69" height="4" rx="1" ry="1" width="4" x="91.00000000000001" y="46.699999999999996"><title>2024-04-20 59.92 mins</title></rect><rect fill="#a3e3a5" height="4" rx="1" ry="1" width="4" x="91.00000000000001" y="52.1"><title>2024-04-21 30.02 mins</title></rect><rect fill="#65bc69" height="4" rx="1" ry="1" width="4" x="96.40000000000002" y="19.7"><title>2024-04-22 60.73 mins</title></rect><rect fill="#65bc69" height="4" rx="1" ry="1" width="4" x="96.40000000000002" y="25.1"><title>2024-04-23 59.97 mins</title></rect><rect fill="#65bd6a" height="4" rx="1" ry="1" width="4" x="96.40000000000002" y="30.5"><title>2024-04-24 51.83 mins</title></rect><rect fill="#64bc69" height="4" rx="1" ry="1" width="4" x="96.40000000000002" y="35.9"><title>2024-04-25 67.22 mins</title></rect><rect fill="#65bd6a" height="4" rx="1" ry="1" width="4" x="96.40000000000002" y="41.300000000000004"><title>2024-04-26 57.47 mins</title></rect><rect fill="#65bd69" height="4" rx="1" ry="1" width="4" x="96.40000000000002" y="46.699999999999996"><title>2024-04-27 59.3 mins</title></rect><rect fill="#549F57" height="4" rx="1" ry="1" width="4" x="96.40000000000002" y="52.1"><title>2024-04-28 121.37 mins</title></rect><rect fill="#65bc69" height="4" rx="1" ry="1" width="4" x="101.80000000000003" y="19.7"><title>2024-04-29 59.72 mins</title></rect><rect fill="#65bd69" height="4" rx="1" ry="1" width="4" x="101.80000000000003" y="25.1"><title>2024-04-30 59.07 mins</title></rect><rect fill="#65bc69" height="4" rx="1" ry="1" width="4" x="101.80000000000003" y="30.5"><title>2024-05-01 59.9 mins</title></rect><rect fill="#65bd69" height="4" rx="1" ry="1" width="4" x="101.80000000000003" y="35.9"><title>2024-05-02 59.18 mins</title></rect><rect fill="#64bc69" height="4" rx="1" ry="1" width="4" x="101.80000000000003" y="41.300000000000004"><title>2024-05-03 62.08 mins</title></rect><rect fill="#64bc69" height="4" rx="1" ry="1" width="4" x="101.80000000000003" y="46.699999999999996"><title>2024-05-04 68.62 mins</title></rect><rect fill="#65bc69" height="4" rx="1" ry="1" width="4" x="101.80000000000003" y="52.1"><title>2024-05-05 59.83 mins</title></rect><text fill="#000000" style="font-size:2.5px; font-family:Arial" x="107.20000000000003" y="18.3">May</text><rect fill="#65bd6a" height="4" rx="1" ry="1" width="4" x="107.20000000000003" y="19.7"><title>2024-05-06 57.5 mins</title></rect><rect fill="#65bd69" height="4" rx="1" ry="1" width="4" x="107.20000000000003" y="25.1"><title>2024-05-07 59.35 mins</title></rect><rect fill="#64bc69" height="4" rx="1" ry="1" width="4" x="107.20000000000003" y="30.5"><title>2024-05-08 68.63 mins</title></rect><rect fill="#65bc69" height="4" rx="1" ry="1" width="4" x="107.20000000000003" y="35.9"><title>2024-05-09 59.88 mins</title></rect><rect fill="#65bd69" height="4" rx="1" ry="1" width="4" x="107.20000000000003" y="41.300000000000004"><title>2024-05-10 59.1 mins</title></rect><rect fill="#65bd69" height="4" rx="1" ry="1" width="4" x="107.20000000000003" y="46.699999999999996"><title>2024-05-11 59.22 mins</title></rect><rect fill="#65bd69" height="4" rx="1" ry="1" width="4" x="107.20000000000003" y="52.1"><title>2024-05-12 59.08 mins</title></rect><rect fill="#65bd69" height="4" rx="1" ry="1" width="4" x="112.60000000000004" y="19.7"><title>2024-05-13 58.43 mins</title></rect><rect fill="#65bd69" height="4" rx="1" ry="1" width="4" x="112.60000000000004" y="25.1"><title>2024-05-14 59.17 mins</title></rect><rect fill="#a3e3a5" height="4" rx="1" ry="1" width="4" x="112.60000000000004" y="30.5"><title>2024-05-15 29.68 mins</title></rect><rect fill="#65bd6a" height="4" rx="1" ry="1" width="4" x="112.60000000000004" y="35.9"><title>2024-05-16 52.72 mins</title></rect><rect fill="#65bd6a" height="4" rx="1" ry="1" width="4" x="112.60000000000004" y="41.300000000000004"><title>2024-05-17 50.75 mins</title></rect><rect fill="#64bc68" height="4" rx="1" ry="1" width="4" x="112.60000000000004" y="46.699999999999996"><title>2024-05-18 72.17 mins</title></rect><rect fill="#549F57" height="4" rx="1" ry="1" width="4" x="112.60000000000004" y="52.1"><title>2024-05-19 101.3 mins</title></rect><rect fill="#549F57" height="4" rx="1" ry="1" width="4" x="118.00000000000004" y="19.7"><title>2024-05-20 157.43 mins</title></rect><rect fill="#549F57" height="4" rx="1" ry="1" width="4" x="118.00000000000004" y="25.1"><title>2024-05-21 143.72 mins</title></rect><rect fill="#549F57" height="4" rx="1" ry="1" width="4" x="118.00000000000004" y="30.5"><title>2024-05-22 228.53 mins</title></rect><rect fill="#63bb68" height="4" rx="1" ry="1" width="4" x="118.00000000000004" y="35.9"><title>2024-05-23 83.47 mins</title></rect><rect fill="#63bb68" height="4" rx="1" ry="1" width="4" x="118.00000000000004" y="41.300000000000004"><title>2024-05-24 81.08 mins</title></rect><rect fill="#65bd6a" height="4" rx="1" ry="1" width="4" x="118.00000000000004" y="46.699999999999996"><title>2024-05-25 55.3 mins</title></rect><rect fill="#549F57" height="4" rx="1" ry="1" width="4" x="118.00000000000004" y="52.1"><title>2024-05-26 143.48 mins</title></rect><rect fill="#64bb68" height="4" rx="1" ry="1" width="4" x="123.40000000000005" y="19.7"><title>2024-05-27 74.38 mins</title></rect><rect fill="#549F57" height="4" rx="1" ry="1" width="4" x="123.40000000000005" y="25.1"><title>2024-05-28 88.98 mins</title></rect><rect fill="#549F57" height="4" rx="1" ry="1" width="4" x="123.40000000000005" y="30.5"><title>2024-05-29 96.45 mins</title></rect><rect fill="#549F57" height="4" rx="1" ry="1" width="4" x="123.40000000000005" y="35.9"><title>2024-05-30 103.03 mins</title></rect><rect fill="#a9e6ab" height="4" rx="1" ry="1" width="4" x="123.40000000000005" y="41.300000000000004"><title>2024-05-31 9.43 mins</title></rect><rect fill="#549F57" height="4" rx="1" ry="1" width="4" x="123.40000000000005" y="46.699999999999996"><title>2024-06-01 214.97 mins</title></rect><rect fill="#549F57" height="4" rx="1" ry="1" width="4" x="123.40000000000005" y="52.1"><title>2024-06-02 162.78 mins</title></rect><text fill="#000000" style="font-size:2.5px; font-family:Arial" x="128.80000000000004" y="18.3">Jun</text><rect fill="#549F57" height="4" rx="1" ry="1" width="4" x="128.80000000000004" y="19.7"><title>2024-06-03 119.17 mins</title></rect><rect fill="#549F57" height="4" rx="1" ry="1" width="4" x="128.80000000000004" y="25.1"><title>2024-06-04 233.2 mins</title></rect><rect fill="#549F57" height="4" rx="1" ry="1" width="4" x="128.80000000000004" y="30.5"><title>2024-06-05 141.87 mins</title></rect><rect fill="#66be6b" height="4" rx="1" ry="1" width="4" x="128.80000000000004" y="35.9"><title>2024-06-06 43.35 mins</title></rect><rect fill="#549F57" height="4" rx="1" ry="1" width="4" x="128.80000000000004" y="41.300000000000004"><title>2024-06-07 177.88 mins</title></rect><rect fill="#549F57" height="4" rx="1" ry="1" width="4" x="128.80000000000004" y="46.699999999999996"><title>2024-06-08 153.65 mins</title></rect><rect fill="#64bb68" height="4" rx="1" ry="1" width="4" x="128.80000000000004" y="52.1"><title>2024-06-09 73.23 mins</title></rect><rect fill="#a3e3a5" height="4" rx="1" ry="1" width="4" x="134.20000000000005" y="19.7"><title>2024-06-10 30.83 mins</title></rect><rect fill="#65bd6a" height="4" rx="1" ry="1" width="4" x="134.20000000000005" y="25.1"><title>2024-06-11 56.73 mins</title></rect><rect fill="#549F57" height="4" rx="1" ry="1" width="4" x="134.20000000000005" y="30.5"><title>2024-06-12 99.85 mins</title></rect><rect fill="#66be6b" height="4" rx="1" ry="1" width="4" x="134.20000000000005" y="35.9"><title>2024-06-13 34.75 mins</title></rect><rect fill="#a3e3a5" height="4" rx="1" ry="1" width="4" x="134.20000000000005" y="41.300000000000004"><title>2024-06-14 31.57 mins</title></rect><rect fill="#65bd6a" height="4" rx="1" ry="1" width="4" x="134.20000000000005" y="46.699999999999996"><title>2024-06-15 50.67 mins</title></rect><rect fill="#64bc69" height="4" rx="1" ry="1" width="4" x="134.20000000000005" y="52.1"><title>2024-06-16 64.77 mins</title></rect><rect fill="#63bb68" height="4" rx="1" ry="1" width="4" x="139.60000000000005" y="19.7"><title>2024-06-17 81.1 mins</title></rect><rect fill="#66be6b" height="4" rx="1" ry="1" width="4" x="139.60000000000005" y="25.1"><title>2024-06-18 41.5 mins</title></rect><rect fill="#66be6b" height="4" rx="1" ry="1" width="4" x="139.60000000000005" y="30.5"><title>2024-06-19 37.23 mins</title></rect><rect fill="#64bc69" height="4" rx="1" ry="1" width="4" x="139.60000000000005" y="35.9"><title>2024-06-20 68.75 mins</title></rect><rect fill="#66bd6a" height="4" rx="1" ry="1" width="4" x="139.60000000000005" y="41.300000000000004"><title>2024-06-21 46.98 mins</title></rect><rect fill="#65bc69" height="4" rx="1" ry="1" width="4" x="139.60000000000005" y="46.699999999999996"><title>2024-06-22 60.45 mins</title></rect><rect fill="#64bb68" height="4" rx="1" ry="1" width="4" x="139.60000000000005" y="52.1"><title>2024-06-23 72.6 mins</title></rect><rect fill="#a2e2a4" height="4" rx="1" ry="1" width="4" x="145.00000000000006" y="19.7"><title>2024-06-24 33.98 mins</title></rect><rect fill="#65bd6a" height="4" rx="1" ry="1" width="4" x="145.00000000000006" y="25.1"><title>2024-06-25 49.23 mins</title></rect><rect fill="#549F57" height="4" rx="1" ry="1" width="4" x="145.00000000000006" y="30.5"><title>2024-06-26 149.87 mins</title></rect><rect fill="#549F57" height="4" rx="1" ry="1" width="4" x="145.00000000000006" y="35.9"><title>2024-06-27 100.95 mins</title></rect><rect fill="#64bc69" height="4" rx="1" ry="1" width="4" x="145.00000000000006" y="41.300000000000004"><title>2024-06-28 65.18 mins</title></rect><rect fill="#64bc68" height="4" rx="1" ry="1" width="4" x="145.00000000000006" y="46.699999999999996"><title>2024-06-29 72.5 mins</title></rect><rect fill="#64bc69" height="4" rx="1" ry="1" width="4" x="145.00000000000006" y="52.1"><title>2024-06-30 68.75 mins</title></rect><text fill="#000000" style="font-size:2.5px; font-family:Arial" x="150.40000000000006" y="18.3">Jul</text><rect fill="#549F57" height="4" rx="1" ry="1" width="4" x="150.40000000000006" y="19.7"><title>2024-07-01 92.9 mins</title></rect><rect fill="#63bb68" height="4" rx="1" ry="1" width="4" x="150.40000000000006" y="25.1"><title>2024-07-02 81.8 mins</title></rect><rect fill="#63bb68" height="4" rx="1" ry="1" width="4" x="150.40000000000006" y="30.5"><title>2024-07-03 80.7 mins</title></rect><rect fill="#a7e5a9" height="4" rx="1" ry="1" width="4" x="150.40000000000006" y="35.9"><title>2024-07-04 16.67 mins</title></rect><rect fill="#63bb68" height="4" rx="1" ry="1" width="4" x="150.40000000000006" y="41.300000000000004"><title>2024-07-05 76.85 mins</title></rect><rect fill="#66be6b" height="4" rx="1" ry="1" width="4" x="150.40000000000006" y="46.699999999999996"><title>2024-07-06 43.67 mins</title></rect><rect fill="#65bc69" height="4" rx="1" ry="1" width="4" x="150.40000000000006" y="52.1"><title>2024-07-07 60.58 mins</title></rect><rect fill="#a7e5a9" height="4" rx="1" ry="1" width="4" x="155.80000000000007" y="19.7"><title>2024-07-08 17.38 mins</title></rect><rect fill="#549F57" height="4" rx="1" ry="1" width="4" x="155.80000000000007" y="25.1"><title>2024-07-09 111.45 mins</title></rect><rect fill="#65bc69" height="4" rx="1" ry="1" width="4" x="155.80000000000007" y="30.5"><title>2024-07-10 59.62 mins</title></rect><rect fill="#66be6b" height="4" rx="1" ry="1" width="4" x="155.80000000000007" y="35.9"><title>2024-07-11 44.48 mins</title></rect><rect fill="#65bc69" height="4" rx="1" ry="1" width="4" x="155.80000000000007" y="41.300000000000004"><title>2024-07-12 59.63 mins</title></rect><rect fill="#63bb68" height="4" rx="1" ry="1" width="4" x="155.80000000000007" y="46.699999999999996"><title>2024-07-13 78.87 mins</title></rect><rect fill="#549F57" height="4" rx="1" ry="1" width="4" x="155.80000000000007" y="52.1"><title>2024-07-14 106.9 mins</title></rect><rect fill="#549F57" height="4" rx="1" ry="1" width="4" x="161.20000000000007" y="19.7"><title>2024-07-15 101.0 mins</title></rect><rect fill="#63bb68" height="4" rx="1" ry="1" width="4" x="161.20000000000007" y="25.1"><title>2024-07-16 83.17 mins</title></rect><rect fill="#549F57" height="4" rx="1" ry="1" width="4" x="161.20000000000007" y="30.5"><title>2024-07-17 91.97 mins</title></rect><rect fill="#549F57" height="4" rx="1" ry="1" width="4" x="161.20000000000007" y="35.9"><title>2024-07-18 115.35 mins</title></rect><rect fill="#65bd6a" height="4" rx="1" ry="1" width="4" x="161.20000000000007" y="41.300000000000004"><title>2024-07-19 57.02 mins</title></rect><rect fill="#65bc69" height="4" rx="1" ry="1" width="4" x="161.20000000000007" y="46.699999999999996"><title>2024-07-20 60.03 mins</title></rect><rect fill="#63bb68" height="4" rx="1" ry="1" width="4" x="161.20000000000007" y="52.1"><title>2024-07-21 77.32 mins</title></rect><rect fill="#a2e2a4" height="4" rx="1" ry="1" width="4" x="166.60000000000008" y="19.7"><title>2024-07-22 33.65 mins</title></rect><rect fill="#a8e5aa" height="4" rx="1" ry="1" width="4" x="166.60000000000008" y="25.1"><title>2024-07-23 13.7 mins</title></rect><rect fill="#66be6a" height="4" rx="1" ry="1" width="4" x="166.60000000000008" y="30.5"><title>2024-07-24 44.98 mins</title></rect><rect fill="#63bb68" height="4" rx="1" ry="1" width="4" x="166.60000000000008" y="35.9"><title>2024-07-25 80.1 mins</title></rect><rect fill="#549F57" height="4" rx="1" ry="1" width="4" x="166.60000000000008" y="41.300000000000004"><title>2024-07-26 249.53 mins</title></rect><rect fill="#66be6b" height="4" rx="1" ry="1" width="4" x="166.60000000000008" y="46.699999999999996"><title>2024-07-27 35.83 mins</title></rect><rect fill="#66be6a" height="4" rx="1" ry="1" width="4" x="166.60000000000008" y="52.1"><title>2024-07-28 45.58 mins</title></rect><rect fill="#a3e3a5" height="4" rx="1" ry="1" width="4" x="172.00000000000009" y="19.7"><title>2024-07-29 30.18 mins</title></rect><rect fill="#549F57" height="4" rx="1" ry="1" width="4" x="172.00000000000009" y="25.1"><title>2024-07-30 241.2 mins</title></rect><rect fill="#549F57" height="4" rx="1" ry="1" width="4" x="172.00000000000009" y="30.5"><title>2024-07-31 236.07 mins</title></rect><rect fill="#64bc69" height="4" rx="1" ry="1" width="4" x="172.00000000000009" y="35.9"><title>2024-08-01 68.68 mins</title></rect><rect fill="#65bd69" height="4" rx="1" ry="1" width="4" x="172.00000000000009" y="41.300000000000004"><title>2024-08-02 59.22 mins</title></rect><rect fill="#66bd6a" height="4" rx="1" ry="1" width="4" x="172.00000000000009" y="46.699999999999996"><title>2024-08-03 47.12 mins</title></rect><rect fill="#65bd6a" height="4" rx="1" ry="1" width="4" x="172.00000000000009" y="52.1"><title>2024-08-04 49.05 mins</title></rect><text fill="#000000" style="font-size:2.5px; font-family:Arial" x="177.4000000000001" y="18.3">Aug</text><rect fill="#63bb67" height="4" rx="1" ry="1" width="4" x="177.4000000000001" y="19.7"><title>2024-08-05 84.52 mins</title></rect><rect fill="#a8e5aa" height="4" rx="1" ry="1" width="4" x="177.4000000000001" y="25.1"><title>2024-08-06 14.38 mins</title></rect><rect fill="#549F57" height="4" rx="1" ry="1" width="4" x="177.4000000000001" y="30.5"><title>2024-08-07 109.58 mins</title></rect><rect fill="#64bc69" height="4" rx="1" ry="1" width="4" x="177.4000000000001" y="35.9"><title>2024-08-08 61.67 mins</title></rect><rect fill="#549F57" height="4" rx="1" ry="1" width="4" x="177.4000000000001" y="41.300000000000004"><title>2024-08-09 98.22 mins</title></rect><rect fill="#63ba67" height="4" rx="1" ry="1" width="4" x="177.4000000000001" y="46.699999999999996"><title>2024-08-10 87.03 mins</title></rect><rect fill="#64bc69" height="4" rx="1" ry="1" width="4" x="177.4000000000001" y="52.1"><title>2024-08-11 64.73 mins</title></rect><rect fill="#549F57" height="4" rx="1" ry="1" width="4" x="182.8000000000001" y="19.7"><title>2024-08-12 108.33 mins</title></rect><rect fill="#64bb68" height="4" rx="1" ry="1" width="4" x="182.8000000000001" y="25.1"><title>2024-08-13 73.6 mins</title></rect><rect fill="#549F57" height="4" rx="1" ry="1" width="4" x="182.8000000000001" y="30.5"><title>2024-08-14 91.87 mins</title></rect><rect fill="#64bc69" height="4" rx="1" ry="1" width="4" x="182.8000000000001" y="35.9"><title>2024-08-15 61.6 mins</title></rect><rect fill="#549F57" height="4" rx="1" ry="1" width="4" x="182.8000000000001" y="41.300000000000004"><title>2024-08-16 129.3 mins</title></rect><rect fill="#549F57" height="4" rx="1" ry="1" width="4" x="182.8000000000001" y="46.699999999999996"><title>2024-08-17 94.27 mins</title></rect><rect fill="#66be6b" height="4" rx="1" ry="1" width="4" x="182.8000000000001" y="52.1"><title>2024-08-18 41.58 mins</title></rect><rect fill="#65bc69" height="4" rx="1" ry="1" width="4" x="188.2000000000001" y="19.7"><title>2024-08-19 60.87 mins</title></rect><rect fill="#549F57" height="4" rx="1" ry="1" width="4" x="188.2000000000001" y="25.1"><title>2024-08-20 167.6 mins</title></rect><rect fill="#549F57" height="4" rx="1" ry="1" width="4" x="188.2000000000001" y="30.5"><title>2024-08-21 120.1 mins</title></rect><rect fill="#549F57" height="4" rx="1" ry="1" width="4" x="188.2000000000001" y="35.9"><title>2024-08-22 136.58 mins</title></rect><rect fill="#549F57" height="4" rx="1" ry="1" width="4" x="188.2000000000001" y="41.300000000000004"><title>2024-08-23 184.37 mins</title></rect><rect fill="#549F57" height="4" rx="1" ry="1" width="4" x="188.2000000000001" y="46.699999999999996"><title>2024-08-24 223.28 mins</title></rect><rect fill="#549F57" height="4" rx="1" ry="1" width="4" x="188.2000000000001" y="52.1"><title>2024-08-25 103.68 mins</title></rect><rect fill="#549F57" height="4" rx="1" ry="1" width="4" x="193.6000000000001" y="19.7"><title>2024-08-26 90.53 mins</title></rect><rect fill="#63bb67" height="4" rx="1" ry="1" width="4" x="193.6000000000001" y="25.1"><title>2024-08-27 84.25 mins</title></rect><rect fill="#64bc69" height="4" rx="1" ry="1" width="4" x="193.6000000000001" y="30.5"><title>2024-08-28 62.68 mins</title></rect><rect fill="#549F57" height="4" rx="1" ry="1" width="4" x="193.6000000000001" y="35.9"><title>2024-08-29 239.48 mins</title></rect><rect fill="#549F57" height="4" rx="1" ry="1" width="4" x="193.6000000000001" y="41.300000000000004"><title>2024-08-30 117.83 mins</title></rect><rect fill="#a5e4a7" height="4" rx="1" ry="1" width="4" x="193.6000000000001" y="46.699999999999996"><title>2024-08-31 23.25 mins</title></rect><rect fill="#65bc69" height="4" rx="1" ry="1" width="4" x="193.6000000000001" y="52.1"><title>2024-09-01 59.75 mins</title></rect><text fill="#000000" style="font-size:2.5px; font-family:Arial" x="199.0000000000001" y="18.3">Sep</text><rect fill="#65bd6a" height="4" rx="1" ry="1" width="4" x="199.0000000000001" y="19.7"><title>2024-09-02 54.33 mins</title></rect><rect fill="#a3e3a5" height="4" rx="1" ry="1" width="4" x="199.0000000000001" y="25.1"><title>2024-09-03 30.23 mins</title></rect><rect fill="#a8e5aa" height="4" rx="1" ry="1" width="4" x="199.0000000000001" y="30.5"><title>2024-09-04 14.85 mins</title></rect><rect fill="#66be6b" height="4" rx="1" ry="1" width="4" x="199.0000000000001" y="35.9"><title>2024-09-05 38.65 mins</title></rect><rect fill="#a7e5a9" height="4" rx="1" ry="1" width="4" x="199.0000000000001" y="41.300000000000004"><title>2024-09-06 17.12 mins</title></rect><rect fill="#a3e3a5" height="4" rx="1" ry="1" width="4" x="199.0000000000001" y="46.699999999999996"><title>2024-09-07 31.97 mins</title></rect><rect fill="#549F57" height="4" rx="1" ry="1" width="4" x="199.0000000000001" y="52.1"><title>2024-09-08 132.02 mins</title></rect><rect fill="#65bd6a" height="4" rx="1" ry="1" width="4" x="204.40000000000012" y="19.7"><title>2024-09-09 47.42 mins</title></rect><rect fill="#63bb68" height="4" rx="1" ry="1" width="4" x="204.40000000000012" y="25.1"><title>2024-09-10 79.95 mins</title></rect><rect fill="#63bb68" height="4" rx="1" ry="1" width="4" x="204.40000000000012" y="30.5"><title>2024-09-11 80.83 mins</title></rect><rect fill="#549F57" height="4" rx="1" ry="1" width="4" x="204.40000000000012" y="35.9"><title>2024-09-12 144.78 mins</title></rect><rect fill="#549F57" height="4" rx="1" ry="1" width="4" x="204.40000000000012" y="41.300000000000004"><title>2024-09-13 177.05 mins</title></rect><rect fill="#549F57" height="4" rx="1" ry="1" width="4" x="204.40000000000012" y="46.699999999999996"><title>2024-09-14 269.58 mins</title></rect><rect fill="#63bb68" height="4" rx="1" ry="1" width="4" x="204.40000000000012" y="52.1"><title>2024-09-15 76.37 mins</title></rect><rect fill="#66be6b" height="4" rx="1" ry="1" width="4" x="209.80000000000013" y="19.7"><title>2024-09-16 39.92 mins</title></rect><rect fill="#a8e5aa" height="4" rx="1" ry="1" width="4" x="209.80000000000013" y="25.1"><title>2024-09-17 12.52 mins</title></rect><rect fill="#a5e4a7" height="4" rx="1" ry="1" width="4" x="209.80000000000013" y="30.5"><title>2024-09-18 23.72 mins</title></rect><rect fill="#a8e5aa" height="4" rx="1" ry="1" width="4" x="209.80000000000013" y="35.9"><title>2024-09-19 13.08 mins</title></rect><rect fill="#a8e5aa" height="4" rx="1" ry="1" width="4" x="209.80000000000013" y="41.300000000000004"><title>2024-09-20 12.37 mins</title></rect><rect fill="#a9e6ab" height="4" rx="1" ry="1" width="4" x="209.80000000000013" y="46.699999999999996"><title>2024-09-21 10.03 mins</title></rect><rect fill="#a8e5aa" height="4" rx="1" ry="1" width="4" x="209.80000000000013" y="52.1"><title>2024-09-22 14.0 mins</title></rect><rect fill="#a8e5aa" height="4" rx="1" ry="1" width="4" x="215.20000000000013" y="19.7"><title>2024-09-23 13.82 mins</title></rect><rect fill="#a8e5ab" height="4" rx="1" ry="1" width="4" x="215.20000000000013" y="25.1"><title>2024-09-24 11.9 mins</title></rect><rect fill="#a7e5a9" height="4" rx="1" ry="1" width="4" x="215.20000000000013" y="30.5"><title>2024-09-25 15.67 mins</title></rect><rect fill="#a7e5a9" height="4" rx="1" ry="1" width="4" x="215.20000000000013" y="35.9"><title>2024-09-26 16.03 mins</title></rect><rect fill="#a5e4a7" height="4" rx="1" ry="1" width="4" x="215.20000000000013" y="41.300000000000004"><title>2024-09-27 25.15 mins</title></rect><rect fill="#a7e5a9" height="4" rx="1" ry="1" width="4" x="215.20000000000013" y="46.699999999999996"><title>2024-09-28 15.78 mins</title></rect><rect fill="#a8e5aa" height="4" rx="1" ry="1" width="4" x="215.20000000000013" y="52.1"><title>2024-09-29 14.78 mins</title></rect><rect fill="#a8e5aa" height="4" rx="1" ry="1" width="4" x="220.60000000000014" y="19.7"><title>2024-09-30 14.88 mins</title></rect><rect fill="#a5e4a7" height="4" rx="1" ry="1" width="4" x="220.60000000000014" y="25.1"><title>2024-10-01 24.32 mins</title></rect><rect fill="#a9e5ab" height="4" rx="1" ry="1" width="4" x="220.60000000000014" y="30.5"><title>2024-10-02 11.58 mins</title></rect><rect fill="#a8e5aa" height="4" rx="1" ry="1" width="4" x="220.60000000000014" y="35.9"><title>2024-10-03 13.83 mins</title></rect><rect fill="#a5e4a7" height="4" rx="1" ry="1" width="4" x="220.60000000000014" y="41.300000000000004"><title>2024-10-04 24.38 mins</title></rect><rect fill="#a9e6ab" height="4" rx="1" ry="1" width="4" x="220.60000000000014" y="46.699999999999996"><title>2024-10-05 9.07 mins</title></rect><rect fill="#a8e5ab" height="4" rx="1" ry="1" width="4" x="220.60000000000014" y="52.1"><title>2024-10-06 11.87 mins</title></rect><text fill="#000000" style="font-size:2.5px; font-family:Arial" x="226.00000000000014" y="18.3">Oct</text><rect fill="#a6e4a8" height="4" rx="1" ry="1" width="4" x="226.00000000000014" y="19.7"><title>2024-10-07 19.02 mins</title></rect><rect fill="#a7e5a9" height="4" rx="1" ry="1" width="4" x="226.00000000000014" y="25.1"><title>2024-10-08 16.58 mins</title></rect><rect fill="#66be6b" height="4" rx="1" ry="1" width="4" x="226.00000000000014" y="30.5"><title>2024-10-09 42.32 mins</title></rect><rect fill="#66be6b" height="4" rx="1" ry="1" width="4" x="226.00000000000014" y="35.9"><title>2024-10-10 40.37 mins</title></rect><rect fill="#a7e5a9" height="4" rx="1" ry="1" width="4" x="226.00000000000014" y="41.300000000000004"><title>2024-10-11 18.43 mins</title></rect><rect fill="#aae6ac" height="4" rx="1" ry="1" width="4" x="226.00000000000014" y="46.699999999999996"><title>2024-10-12 8.12 mins</title></rect><rect fill="#aae6ac" height="4" rx="1" ry="1" width="4" x="226.00000000000014" y="52.1"><title>2024-10-13 8.05 mins</title></rect><rect fill="#a8e5aa" height="4" rx="1" ry="1" width="4" x="231.40000000000015" y="19.7"><title>2024-10-14 14.67 mins</title></rect><rect fill="#a7e5a9" height="4" rx="1" ry="1" width="4" x="231.40000000000015" y="25.1"><title>2024-10-15 17.28 mins</title></rect><rect fill="#a6e4a8" height="4" rx="1" ry="1" width="4" x="231.40000000000015" y="30.5"><title>2024-10-16 19.12 mins</title></rect><rect fill="#a7e5a9" height="4" rx="1" ry="1" width="4" x="231.40000000000015" y="35.9"><title>2024-10-17 17.47 mins</title></rect><rect fill="#65bd6a" height="4" rx="1" ry="1" width="4" x="231.40000000000015" y="41.300000000000004"><title>2024-10-18 48.55 mins</title></rect><rect fill="#a9e6ab" height="4" rx="1" ry="1" width="4" x="231.40000000000015" y="46.699999999999996"><title>2024-10-19 11.03 mins</title></rect><rect fill="#a9e6ab" height="4" rx="1" ry="1" width="4" x="231.40000000000015" y="52.1"><title>2024-10-20 8.85 mins</title></rect><rect fill="#a5e4a7" height="4" rx="1" ry="1" width="4" x="236.80000000000015" y="19.7"><title>2024-10-21 24.27 mins</title></rect><rect fill="#a2e2a4" height="4" rx="1" ry="1" width="4" x="236.80000000000015" y="25.1"><title>2024-10-22 33.38 mins</title></rect><rect fill="#a3e3a5" height="4" rx="1" ry="1" width="4" x="236.80000000000015" y="30.5"><title>2024-10-23 31.12 mins</title></rect><rect fill="#a7e5a9" height="4" rx="1" ry="1" width="4" x="236.80000000000015" y="35.9"><title>2024-10-24 16.0 mins</title></rect><rect fill="#aae6ac" height="4" rx="1" ry="1" width="4" x="236.80000000000015" y="41.300000000000004"><title>2024-10-25 7.62 mins</title></rect><rect fill="#a9e6ab" height="4" rx="1" ry="1" width="4" x="236.80000000000015" y="46.699999999999996"><title>2024-10-26 10.98 mins</title></rect><rect fill="#64bc69" height="4" rx="1" ry="1" width="4" x="236.80000000000015" y="52.1"><title>2024-10-27 63.22 mins</title></rect><rect fill="#a8e5aa" height="4" rx="1" ry="1" width="4" x="242.20000000000016" y="19.7"><title>2024-10-28 13.02 mins</title></rect><rect fill="#a8e5ab" height="4" rx="1" ry="1" width="4" x="242.20000000000016" y="25.1"><title>2024-10-29 11.78 mins</title></rect><rect fill="#a8e5aa" height="4" rx="1" ry="1" width="4" x="242.20000000000016" y="30.5"><title>2024-10-30 12.47 mins</title></rect><rect fill="#a8e5aa" height="4" rx="1" ry="1" width="4" x="242.20000000000016" y="35.9"><title>2024-10-31 12.83 mins</title></rect><rect fill="#a6e4a8" height="4" rx="1" ry="1" width="4" x="242.20000000000016" y="41.300000000000004"><title>2024-11-01 20.9 mins</title></rect><rect fill="#a3e3a5" height="4" rx="1" ry="1" width="4" x="242.20000000000016" y="46.699999999999996"><title>2024-11-02 30.52 mins</title></rect><rect fill="#a7e5a9" height="4" rx="1" ry="1" width="4" x="242.20000000000016" y="52.1"><title>2024-11-03 17.07 mins</title></rect><text fill="#000000" style="font-size:2.5px; font-family:Arial" x="247.60000000000016" y="18.3">Nov</text><rect fill="#66be6b" height="4" rx="1" ry="1" width="4" x="247.60000000000016" y="19.7"><title>2024-11-04 42.55 mins</title></rect><rect fill="#66be6b" height="4" rx="1" ry="1" width="4" x="247.60000000000016" y="25.1"><title>2024-11-05 43.15 mins</title></rect><rect fill="#66be6b" height="4" rx="1" ry="1" width="4" x="247.60000000000016" y="30.5"><title>2024-11-06 38.27 mins</title></rect><rect fill="#a8e5aa" height="4" rx="1" ry="1" width="4" x="247.60000000000016" y="35.9"><title>2024-11-07 12.88 mins</title></rect><rect fill="#a5e4a7" height="4" rx="1" ry="1" width="4" x="247.60000000000016" y="41.300000000000004"><title>2024-11-08 24.97 mins</title></rect><rect fill="#65bd6a" height="4" rx="1" ry="1" width="4" x="247.60000000000016" y="46.699999999999996"><title>2024-11-09 57.4 mins</title></rect><rect fill="#66be6b" height="4" rx="1" ry="1" width="4" x="247.60000000000016" y="52.1"><title>2024-11-10 37.38 mins</title></rect><rect fill="#66be6b" height="4" rx="1" ry="1" width="4" x="253.00000000000017" y="19.7"><title>2024-11-11 38.13 mins</title></rect><rect fill="#549F57" height="4" rx="1" ry="1" width="4" x="253.00000000000017" y="25.1"><title>2024-11-12 140.1 mins</title></rect><rect fill="#65bd6a" height="4" rx="1" ry="1" width="4" x="253.00000000000017" y="30.5"><title>2024-11-13 57.03 mins</title></rect><rect fill="#64bc69" height="4" rx="1" ry="1" width="4" x="253.00000000000017" y="35.9"><title>2024-11-14 61.68 mins</title></rect><rect fill="#a5e4a7" height="4" rx="1" ry="1" width="4" x="253.00000000000017" y="41.300000000000004"><title>2024-11-15 22.68 mins</title></rect><rect fill="#549F57" height="4" rx="1" ry="1" width="4" x="253.00000000000017" y="46.699999999999996"><title>2024-11-16 99.47 mins</title></rect><rect fill="#a8e5aa" height="4" rx="1" ry="1" width="4" x="253.00000000000017" y="52.1"><title>2024-11-17 12.17 mins</title></rect><rect fill="#549F57" height="4" rx="1" ry="1" width="4" x="258.40000000000015" y="19.7"><title>2024-11-18 94.55 mins</title></rect><rect fill="#66be6b" height="4" rx="1" ry="1" width="4" x="258.40000000000015" y="25.1"><title>2024-11-19 43.73 mins</title></rect><rect fill="#63bb68" height="4" rx="1" ry="1" width="4" x="258.40000000000015" y="30.5"><title>2024-11-20 82.0 mins</title></rect><rect fill="#66be6b" height="4" rx="1" ry="1" width="4" x="258.40000000000015" y="35.9"><title>2024-11-21 36.2 mins</title></rect><rect fill="#64bc69" height="4" rx="1" ry="1" width="4" x="258.40000000000015" y="41.300000000000004"><title>2024-11-22 63.72 mins</title></rect><rect fill="#64bc69" height="4" rx="1" ry="1" width="4" x="258.40000000000015" y="46.699999999999996"><title>2024-11-23 65.27 mins</title></rect><rect fill="#65bd6a" height="4" rx="1" ry="1" width="4" x="258.40000000000015" y="52.1"><title>2024-11-24 50.08 mins</title></rect><rect fill="#63bb67" height="4" rx="1" ry="1" width="4" x="263.8000000000001" y="19.7"><title>2024-11-25 85.23 mins</title></rect><rect fill="#64bc69" height="4" rx="1" ry="1" width="4" x="263.8000000000001" y="25.1"><title>2024-11-26 64.33 mins</title></rect><rect fill="#64bc69" height="4" rx="1" ry="1" width="4" x="263.8000000000001" y="30.5"><title>2024-11-27 61.48 mins</title></rect><rect fill="#64bc69" height="4" rx="1" ry="1" width="4" x="263.8000000000001" y="35.9"><title>2024-11-28 64.82 mins</title></rect><rect fill="#66be6b" height="4" rx="1" ry="1" width="4" x="263.8000000000001" y="41.300000000000004"><title>2024-11-29 34.4 mins</title></rect><rect fill="#66be6b" height="4" rx="1" ry="1" width="4" x="263.8000000000001" y="46.699999999999996"><title>2024-11-30 38.18 mins</title></rect><rect fill="#64bc69" height="4" rx="1" ry="1" width="4" x="263.8000000000001" y="52.1"><title>2024-12-01 70.47 mins</title></rect><text fill="#000000" style="font-size:2.5px; font-family:Arial" x="269.2000000000001" y="18.3">Dec</text><rect fill="#64bc69" height="4" rx="1" ry="1" width="4" x="269.2000000000001" y="19.7"><title>2024-12-02 63.13 mins</title></rect><rect fill="#63bb68" height="4" rx="1" ry="1" width="4" x="269.2000000000001" y="25.1"><title>2024-12-03 78.68 mins</title></rect><rect fill="#65bd6a" height="4" rx="1" ry="1" width="4" x="269.2000000000001" y="30.5"><title>2024-12-04 49.03 mins</title></rect><rect fill="#65bd69" height="4" rx="1" ry="1" width="4" x="269.2000000000001" y="35.9"><title>2024-12-05 58.28 mins</title></rect><rect fill="#66be6b" height="4" rx="1" ry="1" width="4" x="269.2000000000001" y="41.300000000000004"><title>2024-12-06 35.63 mins</title></rect><rect fill="#a9e6ab" height="4" rx="1" ry="1" width="4" x="269.2000000000001" y="46.699999999999996"><title>2024-12-07 11.05 mins</title></rect><rect fill="#a7e5aa" height="4" rx="1" ry="1" width="4" x="269.2000000000001" y="52.1"><title>2024-12-08 15.3 mins</title></rect><rect fill="#66be6b" height="4" rx="1" ry="1" width="4" x="274.6000000000001" y="19.7"><title>2024-12-09 42.3 mins</title></rect><rect fill="#63ba67" height="4" rx="1" ry="1" width="4" x="274.6000000000001" y="25.1"><title>2024-12-10 88.92 mins</title></rect><rect fill="#65bd6a" height="4" rx="1" ry="1" width="4" x="274.6000000000001" y="30.5"><title>2024-12-11 49.78 mins</title></rect><rect fill="#64bc69" height="4" rx="1" ry="1" width="4" x="274.6000000000001" y="35.9"><title>2024-12-12 70.25 mins</title></rect><rect fill="#a4e3a6" height="4" rx="1" ry="1" width="4" x="274.6000000000001" y="41.300000000000004"><title>2024-12-13 27.33 mins</title></rect><rect fill="#EBEDF0" height="4" rx="1" ry="1" width="4" x="274.6000000000001" y="46.699999999999996"><title>2024-12-14</title></rect><rect fill="#EBEDF0" height="4" rx="1" ry="1" width="4" x="274.6000000000001" y="52.1"><title>2024-12-15</title></rect><rect fill="#EBEDF0" height="4" rx="1" ry="1" width="4" x="280.00000000000006" y="19.7"><title>2024-12-16</title></rect><rect fill="#EBEDF0" height="4" rx="1" ry="1" width="4" x="280.00000000000006" y="25.1"><title>2024-12-17</title></rect><rect fill="#EBEDF0" height="4" rx="1" ry="1" width="4" x="280.00000000000006" y="30.5"><title>2024-12-18</title></rect><rect fill="#EBEDF0" height="4" rx="1" ry="1" width="4" x="280.00000000000006" y="35.9"><title>2024-12-19</title></rect><rect fill="#EBEDF0" height="4" rx="1" ry="1" width="4" x="280.00000000000006" y="41.300000000000004"><title>2024-12-20</title></rect><rect fill="#EBEDF0" height="4" rx="1" ry="1" width="4" x="280.00000000000006" y="46.699999999999996"><title>2024-12-21</title></rect><rect fill="#EBEDF0" height="4" rx="1" ry="1" width="4" x="280.00000000000006" y="52.1"><title>2024-12-22</title></rect><rect fill="#EBEDF0" height="4" rx="1" ry="1" width="4" x="285.40000000000003" y="19.7"><title>2024-12-23</title></rect><rect fill="#EBEDF0" height="4" rx="1" ry="1" width="4" x="285.40000000000003" y="25.1"><title>2024-12-24</title></rect><rect fill="#EBEDF0" height="4" rx="1" ry="1" width="4" x="285.40000000000003" y="30.5"><title>2024-12-25</title></rect><rect fill="#EBEDF0" height="4" rx="1" ry="1" width="4" x="285.40000000000003" y="35.9"><title>2024-12-26</title></rect><rect fill="#EBEDF0" height="4" rx="1" ry="1" width="4" x="285.40000000000003" y="41.300000000000004"><title>2024-12-27</title></rect><rect fill="#EBEDF0" height="4" rx="1" ry="1" width="4" x="285.40000000000003" y="46.699999999999996"><title>2024-12-28</title></rect><rect fill="#EBEDF0" height="4" rx="1" ry="1" width="4" x="285.40000000000003" y="52.1"><title>2024-12-29</title></rect><rect fill="#EBEDF0" height="4" rx="1" ry="1" width="4" x="290.8" y="19.7"><title>2024-12-30</title></rect><rect fill="#EBEDF0" height="4" rx="1" ry="1" width="4" x="290.8" y="25.1"><title>2024-12-31</title></rect></svg>